<svg xmlns="http://www.w3.org/2000/svg" xmlns:xlink="http://www.w3.org/1999/xlink" width="500" zoomAndPan="magnify" viewBox="0 0 375 374.999991" height="500" preserveAspectRatio="xMidYMid meet" version="1.0"><defs><g/><clipPath id="15b7f864fc"><path d="M 72.382812 156.316406 L 137.613281 156.316406 L 137.613281 218.566406 L 72.382812 218.566406 Z M 72.382812 156.316406 " clip-rule="nonzero"/></clipPath></defs><g clip-path="url(#15b7f864fc)"><path fill="#ffffff" d="M 122.085938 156.320312 L 90.894531 187.507812 L 122.085938 218.5625 L 137.613281 218.5625 L 106.425781 187.507812 L 137.613281 156.320312 Z M 96.480469 218.5625 L 75.367188 197.449219 L 72.363281 194.589844 L 72.363281 218.5625 Z M 75.367188 190.375 L 103.554688 218.5625 L 115 218.5625 L 83.808594 187.507812 L 115 156.320312 L 103.554688 156.320312 L 75.367188 184.519531 L 72.363281 187.507812 Z M 75.367188 177.433594 L 96.480469 156.320312 L 72.363281 156.320312 L 72.363281 180.289062 Z M 75.367188 177.433594 " fill-opacity="1" fill-rule="nonzero"/></g><g fill="#ffffff" fill-opacity="1"><g transform="translate(137.721703, 198.791288)"><g><path d="M 17.59375 0.5 L 9.578125 -10.609375 L 9.578125 0.5 L 2.15625 0.5 L 2.15625 -25.421875 L 9.578125 -25.421875 L 9.578125 -15.546875 L 16.984375 -25.421875 L 26.21875 -25.421875 L 16.34375 -13.078125 L 26.828125 0.5 Z M 17.59375 0.5 "/></g></g></g><g fill="#ffffff" fill-opacity="1"><g transform="translate(167.038343, 198.791288)"><g><path d="M 20.546875 0.5 L 18.90625 -3.8125 L 8.859375 -3.8125 L 7.21875 0.5 L -0.3125 0.5 L 10.421875 -25.421875 L 17.359375 -25.421875 L 28.078125 0.5 Z M 13.875 -16.765625 L 11.03125 -9.375 L 16.75 -9.375 Z M 13.875 -16.765625 "/></g></g></g><g fill="#ffffff" fill-opacity="1"><g transform="translate(196.966225, 198.791288)"><g><path d="M 10.984375 -7.53125 L 9.578125 -7.53125 L 9.578125 0.5 L 2.15625 0.5 L 2.15625 -25.421875 L 13.875 -25.421875 C 16.070312 -25.421875 17.90625 -25.054688 19.375 -24.328125 C 20.851562 -23.597656 21.953125 -22.582031 22.671875 -21.28125 C 23.390625 -19.976562 23.75 -18.472656 23.75 -16.765625 C 23.75 -14.816406 23.296875 -13.070312 22.390625 -11.53125 C 21.492188 -9.988281 20.238281 -8.878906 18.625 -8.203125 L 25 0.5 L 16.34375 0.5 Z M 13.1875 -13.6875 C 14.113281 -13.6875 14.867188 -13.914062 15.453125 -14.375 C 16.046875 -14.84375 16.34375 -15.539062 16.34375 -16.46875 C 16.34375 -17.375 16.046875 -18.0625 15.453125 -18.53125 C 14.867188 -19 14.113281 -19.234375 13.1875 -19.234375 L 9.578125 -19.234375 L 9.578125 -13.6875 Z M 13.1875 -13.6875 "/></g></g></g><g fill="#ffffff" fill-opacity="1"><g transform="translate(225.036864, 198.791288)"><g><path d="M 26.21875 -10.609375 C 26.21875 -8.335938 25.71875 -6.3125 24.71875 -4.53125 C 23.726562 -2.75 22.300781 -1.359375 20.4375 -0.359375 C 18.582031 0.628906 16.394531 1.125 13.875 1.125 C 11.351562 1.125 9.160156 0.628906 7.296875 -0.359375 C 5.441406 -1.359375 4.019531 -2.75 3.03125 -4.53125 C 2.039062 -6.3125 1.546875 -8.335938 1.546875 -10.609375 L 1.546875 -25.421875 L 9.578125 -25.421875 L 9.578125 -10.53125 C 9.578125 -9.5 9.78125 -8.613281 10.1875 -7.875 C 10.59375 -7.132812 11.125 -6.582031 11.78125 -6.21875 C 12.4375 -5.851562 13.132812 -5.671875 13.875 -5.671875 C 14.625 -5.671875 15.328125 -5.851562 15.984375 -6.21875 C 16.648438 -6.582031 17.1875 -7.132812 17.59375 -7.875 C 18 -8.613281 18.203125 -9.5 18.203125 -10.53125 L 18.203125 -25.421875 L 26.21875 -25.421875 Z M 26.21875 -10.609375 "/></g></g></g><g fill="#ffffff" fill-opacity="1"><g transform="translate(254.964749, 198.791288)"><g><path d="M 26.828125 0.5 L 19.453125 0.5 L 9.578125 -13.6875 L 9.578125 0.5 L 2.15625 0.5 L 2.15625 -25.421875 L 9.578125 -25.421875 L 19.453125 -11.21875 L 19.453125 -25.421875 L 26.828125 -25.421875 Z M 26.828125 0.5 "/></g></g></g><g fill="#ffffff" fill-opacity="1"><g transform="translate(286.115116, 198.791288)"><g><path d="M 20.546875 0.5 L 18.90625 -3.8125 L 8.859375 -3.8125 L 7.21875 0.5 L -0.3125 0.5 L 10.421875 -25.421875 L 17.359375 -25.421875 L 28.078125 0.5 Z M 13.875 -16.765625 L 11.03125 -9.375 L 16.75 -9.375 Z M 13.875 -16.765625 "/></g></g></g></svg>