<svg xmlns="http://www.w3.org/2000/svg" xmlns:xlink="http://www.w3.org/1999/xlink" width="500" zoomAndPan="magnify" viewBox="0 0 375 374.999991" height="500" preserveAspectRatio="xMidYMid meet" version="1.0"><defs><g/><clipPath id="5ca91e351f"><path d="M 83.546875 200.984375 L 95.347656 200.984375 L 95.347656 229.441406 L 83.546875 229.441406 Z M 83.546875 200.984375 " clip-rule="nonzero"/></clipPath><clipPath id="bf3e337eae"><path d="M 45.25 145.441406 L 112.625 145.441406 L 112.625 224.824219 L 45.25 224.824219 Z M 45.25 145.441406 " clip-rule="nonzero"/></clipPath></defs><path fill="#d98002" d="M 82.476562 164.441406 L 81.507812 163.683594 C 77.636719 159.695312 73.8125 154.378906 69.214844 151.296875 C 69.066406 152.8125 73.867188 165.894531 74.734375 168.488281 C 76.078125 167.761719 77.445312 167.058594 78.78125 166.375 C 80.007812 165.742188 81.269531 165.089844 82.476562 164.441406 " fill-opacity="1" fill-rule="nonzero"/><g clip-path="url(#5ca91e351f)"><path fill="#d98002" d="M 92.472656 207.292969 C 90.800781 203.945312 87.390625 202.265625 83.667969 200.988281 C 83.679688 200.996094 83.6875 201.007812 83.695312 201.019531 C 86.769531 204.078125 89.816406 208.796875 90.660156 213.109375 C 91.691406 218.394531 90.382812 226.546875 85.242188 229.425781 C 86.941406 229.632812 89.425781 227.789062 90.734375 226.785156 C 92.394531 225.515625 93.613281 223.902344 94.515625 222.078125 C 94.585938 221.878906 94.652344 221.683594 94.714844 221.488281 C 95.992188 217.519531 95.257812 212.875 92.472656 207.292969 " fill-opacity="1" fill-rule="nonzero"/></g><g clip-path="url(#bf3e337eae)"><path fill="#d98002" d="M 102.019531 200.359375 C 102 200.652344 101.980469 200.933594 101.964844 201.207031 C 101.746094 204.589844 100.828125 208.460938 99.429688 212.136719 C 98.875 209.929688 97.988281 207.609375 96.773438 205.171875 C 95.699219 203.015625 94.066406 201.167969 91.929688 199.679688 C 89.496094 197.988281 86.6875 196.949219 84.507812 196.230469 C 83.585938 195.925781 82.667969 195.644531 81.78125 195.375 L 81.160156 195.183594 C 77.492188 194.058594 73.722656 193.550781 70.078125 193.058594 C 66.730469 192.609375 63.570312 192.183594 60.496094 191.320312 C 58.210938 190.675781 55.828125 190.238281 53.800781 188.964844 C 53.296875 188.648438 51.304688 187.753906 51.847656 187.105469 C 51.882812 187.066406 51.921875 187.035156 51.972656 187.011719 C 52.429688 186.792969 53.515625 187.214844 53.914062 187.230469 C 58.457031 187.445312 62.898438 187.253906 67.402344 186.992188 C 71.003906 186.78125 85.125 187.1875 88.519531 187.867188 C 92.789062 188.726562 97.558594 189.917969 101.441406 192.179688 L 101.941406 194.167969 C 102.339844 195.761719 102.164062 198.3125 102.019531 200.359375 Z M 88.636719 172.429688 C 88.636719 172.429688 86.128906 177.910156 78.863281 176.09375 C 78.863281 176.09375 80.523438 171.785156 88.636719 172.429688 Z M 110.796875 181.34375 C 107.015625 170.480469 100.734375 165.375 93.277344 156.765625 C 89.835938 152.796875 86.210938 148.855469 82.460938 145.441406 C 82.535156 150.160156 83.898438 155.035156 85.191406 159.476562 C 85.558594 160.75 86.183594 162.320312 86.347656 163.683594 C 86.546875 165.375 85.636719 165.265625 84.101562 166.101562 C 81.007812 167.785156 77.644531 169.40625 74.503906 171.15625 C 71.75 172.695312 70.382812 174.761719 68.109375 176.769531 C 64.472656 179.984375 58.742188 180.164062 54.105469 180.859375 C 51.820312 181.199219 49.636719 181.320312 47.261719 181.34375 C 44.144531 181.375 45.429688 183.125 46.007812 185.136719 C 47.660156 186.976562 49.003906 189.351562 51.378906 190.765625 C 54.117188 192.394531 56.679688 193.222656 59.714844 194.074219 C 66.488281 195.980469 73.667969 195.882812 80.308594 197.921875 C 81.386719 198.25 82.496094 198.582031 83.601562 198.949219 C 85.960938 199.726562 88.300781 200.652344 90.273438 202.027344 C 91.886719 203.148438 93.253906 204.5625 94.191406 206.445312 C 96.582031 211.238281 98.242188 216.792969 96.542969 222.070312 C 96.261719 222.953125 95.914062 223.84375 95.582031 224.714844 C 96.316406 222.792969 98.277344 220.988281 99.3125 219.167969 C 102.234375 214.015625 104.457031 207.296875 104.835938 201.390625 C 104.992188 199.011719 105.308594 195.765625 104.734375 193.472656 C 106.710938 195.371094 110.074219 201.148438 107.617188 210.566406 C 114.128906 204.949219 113.246094 188.386719 110.796875 181.34375 " fill-opacity="1" fill-rule="nonzero"/></g><g fill="#d98002" fill-opacity="1"><g transform="translate(122.412995, 196.113665)"><g><path d="M 29.234375 -17.9375 L 23.375 0 L 18.90625 0 L 14.96875 -12.140625 L 10.890625 0 L 6.453125 0 L 0.5625 -17.9375 L 4.875 -17.9375 L 8.921875 -5.328125 L 13.140625 -17.9375 L 16.984375 -17.9375 L 21.09375 -5.234375 L 25.265625 -17.9375 Z M 29.234375 -17.9375 "/></g></g></g><g fill="#d98002" fill-opacity="1"><g transform="translate(157.27199, 196.113665)"><g><path d="M 2.125 -17.9375 L 6.28125 -17.9375 L 6.28125 0 L 2.125 0 Z M 2.125 -17.9375 "/></g></g></g><g fill="#d98002" fill-opacity="1"><g transform="translate(170.746346, 196.113665)"><g><path d="M 8.015625 0.3125 C 6.597656 0.3125 5.226562 0.117188 3.90625 -0.265625 C 2.582031 -0.648438 1.519531 -1.148438 0.71875 -1.765625 L 2.125 -4.890625 C 2.894531 -4.328125 3.804688 -3.875 4.859375 -3.53125 C 5.921875 -3.195312 6.984375 -3.03125 8.046875 -3.03125 C 9.222656 -3.03125 10.09375 -3.203125 10.65625 -3.546875 C 11.21875 -3.898438 11.5 -4.367188 11.5 -4.953125 C 11.5 -5.378906 11.332031 -5.734375 11 -6.015625 C 10.664062 -6.296875 10.238281 -6.519531 9.71875 -6.6875 C 9.195312 -6.851562 8.492188 -7.039062 7.609375 -7.25 C 6.242188 -7.570312 5.125 -7.894531 4.25 -8.21875 C 3.382812 -8.550781 2.640625 -9.070312 2.015625 -9.78125 C 1.390625 -10.5 1.078125 -11.457031 1.078125 -12.65625 C 1.078125 -13.695312 1.359375 -14.640625 1.921875 -15.484375 C 2.484375 -16.335938 3.332031 -17.007812 4.46875 -17.5 C 5.601562 -18 6.992188 -18.25 8.640625 -18.25 C 9.785156 -18.25 10.898438 -18.109375 11.984375 -17.828125 C 13.078125 -17.554688 14.035156 -17.164062 14.859375 -16.65625 L 13.578125 -13.5 C 11.921875 -14.4375 10.265625 -14.90625 8.609375 -14.90625 C 7.453125 -14.90625 6.59375 -14.71875 6.03125 -14.34375 C 5.476562 -13.96875 5.203125 -13.472656 5.203125 -12.859375 C 5.203125 -12.242188 5.519531 -11.785156 6.15625 -11.484375 C 6.800781 -11.191406 7.78125 -10.898438 9.09375 -10.609375 C 10.457031 -10.285156 11.578125 -9.957031 12.453125 -9.625 C 13.328125 -9.300781 14.070312 -8.789062 14.6875 -8.09375 C 15.3125 -7.394531 15.625 -6.445312 15.625 -5.25 C 15.625 -4.226562 15.335938 -3.289062 14.765625 -2.4375 C 14.203125 -1.59375 13.347656 -0.921875 12.203125 -0.421875 C 11.054688 0.0664062 9.660156 0.3125 8.015625 0.3125 Z M 8.015625 0.3125 "/></g></g></g><g fill="#d98002" fill-opacity="1"><g transform="translate(192.159907, 196.113665)"><g><path d="M 16.015625 -3.328125 L 16.015625 0 L 2.125 0 L 2.125 -17.9375 L 15.6875 -17.9375 L 15.6875 -14.609375 L 6.25 -14.609375 L 6.25 -10.71875 L 14.578125 -10.71875 L 14.578125 -7.484375 L 6.25 -7.484375 L 6.25 -3.328125 Z M 16.015625 -3.328125 "/></g></g></g><g fill="#d98002" fill-opacity="1"><g transform="translate(214.418618, 196.113665)"><g><path d="M 18.453125 0 L 18.421875 -10.765625 L 13.140625 -1.890625 L 11.28125 -1.890625 L 6.015625 -10.53125 L 6.015625 0 L 2.125 0 L 2.125 -17.9375 L 5.5625 -17.9375 L 12.28125 -6.796875 L 18.890625 -17.9375 L 22.296875 -17.9375 L 22.34375 0 Z M 18.453125 0 "/></g></g></g><g fill="#d98002" fill-opacity="1"><g transform="translate(243.950655, 196.113665)"><g><path d="M 2.125 -17.9375 L 6.28125 -17.9375 L 6.28125 0 L 2.125 0 Z M 2.125 -17.9375 "/></g></g></g><g fill="#d98002" fill-opacity="1"><g transform="translate(257.425017, 196.113665)"><g><path d="M 18.578125 -17.9375 L 18.578125 0 L 15.171875 0 L 6.234375 -10.890625 L 6.234375 0 L 2.125 0 L 2.125 -17.9375 L 5.5625 -17.9375 L 14.484375 -7.046875 L 14.484375 -17.9375 Z M 18.578125 -17.9375 "/></g></g></g><g fill="#d98002" fill-opacity="1"><g transform="translate(283.192333, 196.113665)"><g><path d="M 2.125 -17.9375 L 10.28125 -17.9375 C 12.226562 -17.9375 13.945312 -17.5625 15.4375 -16.8125 C 16.9375 -16.070312 18.097656 -15.023438 18.921875 -13.671875 C 19.753906 -12.328125 20.171875 -10.757812 20.171875 -8.96875 C 20.171875 -7.175781 19.753906 -5.601562 18.921875 -4.25 C 18.097656 -2.90625 16.9375 -1.859375 15.4375 -1.109375 C 13.945312 -0.367188 12.226562 0 10.28125 0 L 2.125 0 Z M 10.078125 -3.40625 C 11.867188 -3.40625 13.296875 -3.90625 14.359375 -4.90625 C 15.429688 -5.90625 15.96875 -7.257812 15.96875 -8.96875 C 15.96875 -10.675781 15.429688 -12.03125 14.359375 -13.03125 C 13.296875 -14.03125 11.867188 -14.53125 10.078125 -14.53125 L 6.28125 -14.53125 L 6.28125 -3.40625 Z M 10.078125 -3.40625 "/></g></g></g><g fill="#d98002" fill-opacity="1"><g transform="translate(309.420646, 196.113665)"><g><path d="M 8.015625 0.3125 C 6.597656 0.3125 5.226562 0.117188 3.90625 -0.265625 C 2.582031 -0.648438 1.519531 -1.148438 0.71875 -1.765625 L 2.125 -4.890625 C 2.894531 -4.328125 3.804688 -3.875 4.859375 -3.53125 C 5.921875 -3.195312 6.984375 -3.03125 8.046875 -3.03125 C 9.222656 -3.03125 10.09375 -3.203125 10.65625 -3.546875 C 11.21875 -3.898438 11.5 -4.367188 11.5 -4.953125 C 11.5 -5.378906 11.332031 -5.734375 11 -6.015625 C 10.664062 -6.296875 10.238281 -6.519531 9.71875 -6.6875 C 9.195312 -6.851562 8.492188 -7.039062 7.609375 -7.25 C 6.242188 -7.570312 5.125 -7.894531 4.25 -8.21875 C 3.382812 -8.550781 2.640625 -9.070312 2.015625 -9.78125 C 1.390625 -10.5 1.078125 -11.457031 1.078125 -12.65625 C 1.078125 -13.695312 1.359375 -14.640625 1.921875 -15.484375 C 2.484375 -16.335938 3.332031 -17.007812 4.46875 -17.5 C 5.601562 -18 6.992188 -18.25 8.640625 -18.25 C 9.785156 -18.25 10.898438 -18.109375 11.984375 -17.828125 C 13.078125 -17.554688 14.035156 -17.164062 14.859375 -16.65625 L 13.578125 -13.5 C 11.921875 -14.4375 10.265625 -14.90625 8.609375 -14.90625 C 7.453125 -14.90625 6.59375 -14.71875 6.03125 -14.34375 C 5.476562 -13.96875 5.203125 -13.472656 5.203125 -12.859375 C 5.203125 -12.242188 5.519531 -11.785156 6.15625 -11.484375 C 6.800781 -11.191406 7.78125 -10.898438 9.09375 -10.609375 C 10.457031 -10.285156 11.578125 -9.957031 12.453125 -9.625 C 13.328125 -9.300781 14.070312 -8.789062 14.6875 -8.09375 C 15.3125 -7.394531 15.625 -6.445312 15.625 -5.25 C 15.625 -4.226562 15.335938 -3.289062 14.765625 -2.4375 C 14.203125 -1.59375 13.347656 -0.921875 12.203125 -0.421875 C 11.054688 0.0664062 9.660156 0.3125 8.015625 0.3125 Z M 8.015625 0.3125 "/></g></g></g></svg>